<?xml version="1.0" encoding="utf-8"?>
<!-- Generator: Adobe Illustrator 21.1.0, SVG Export Plug-In . SVG Version: 6.00 Build 0)  -->
<svg version="1.1" id="Layer_1" xmlns="http://www.w3.org/2000/svg" xmlns:xlink="http://www.w3.org/1999/xlink" x="0px" y="0px"
	 viewBox="0 0 1366 768" style="enable-background:new 0 0 1366 768;" xml:space="preserve">
<style type="text/css">
	.st0{fill:#be7077;stroke:#be7077;stroke-miterlimit:10;}
</style>
<path class="st0" d="M9.5,311.5l58-16l40-23l13-2l30,19l15,13l13-2l23,10l40,24l48-16l15-2c0,0,17-3,21,0s18,13,18,13l28,7l34-6
	l29-15l12,1l71-37l25-8l95,49l24,12h17l20-7l85-25l17,1l57-33l63,23l74,30l49,15l58-15l15-6l20-14l25-17l20-11l30,10l153,45l5,440
	l-1368-1v-455L9.5,311.5z"/>
</svg>
