<?xml version="1.0" encoding="utf-8"?>
<!-- Generator: Adobe Illustrator 21.1.0, SVG Export Plug-In . SVG Version: 6.00 Build 0)  -->
<svg version="1.1" id="Layer_1" xmlns="http://www.w3.org/2000/svg" xmlns:xlink="http://www.w3.org/1999/xlink" x="0px" y="0px"
	 viewBox="0 0 1366 768" style="enable-background:new 0 0 1366 768;" xml:space="preserve">
<style type="text/css">
	.st0{fill:#4a2a52;stroke:#4a2a52;stroke-miterlimit:10;}
</style>
<path class="st0" d="M1366.5,417.5c-20,0.4-38.1,1.6-67,16c-53.9,26.7-61.8,57.2-108,64c-27.4,4-56.1-7.6-68-13
	c-42.4-19.1-34.4-31.8-67-44c-49.6-18.5-112.2,18.7-116,21c-22.5,13.7-30.7,26.7-51,27c-16.8,0.3-21.9-8.5-51-23
	c-30.2-15-56.9-28.4-86-24c-26.9,4-28.8,19.1-56,23c-30.1,4.3-38.7-12.6-69-18c-64.4-11.4-96.7,52.2-173,46c-12-1-27.5-2.2-45-11
	c-23.2-11.6-24.3-23.6-47-33c-21-8.7-40.6-6.9-49-6c-20.9,2.2-35.9,9.8-40,12c-29.8,15.9-31.2,35.4-59,45c-4.3,1.5-13.3,4.5-25,4
	c-31-1.3-39.8-25.4-87-48c-13.6-6.5-23.8-10.5-38-11c-29.6-1.1-52.8,15.5-64,25l1,298l1368,1L1366.5,417.5z"/>
</svg>
