<?xml version="1.0" encoding="utf-8"?>
<!-- Generator: Adobe Illustrator 21.1.0, SVG Export Plug-In . SVG Version: 6.00 Build 0)  -->
<svg version="1.1" id="Layer_1" xmlns="http://www.w3.org/2000/svg" xmlns:xlink="http://www.w3.org/1999/xlink" x="0px" y="0px"
	 viewBox="0 0 1366 768" style="enable-background:new 0 0 1366 768;" xml:space="preserve">
<style type="text/css">
	.st0{fill:#4A2A52;stroke:#4A2A52;stroke-miterlimit:10;}
</style>
<path class="st0" d="M100,410"/>
<path class="st0" d="M-1,454c9.6-4.1,19.9-8.1,31-12c12.6-4.4,24.7-8,36-11c30.9-11.5,56.9-15.4,72-16c18.8-0.7,36,2,36,2
	c3,0.5,5.3,0.9,6.8,1.2c20.9,4.1,35.5,10.1,35.3,10.6c0,0.1-0.5,0.1-1.1,0.2c-0.2,0-0.5,0-0.8,0.1c15.3,4.2,38.3,8.6,65.8,5.9
	c13.5-1.3,31.5-6.6,67-17c46.8-13.7,52.1-16.9,70-18c21.1-1.3,40.3,1.5,50,3c16.3,2.4,29.8,5.9,40,9l46,17c9.3,2.7,18.7,5.3,28,8
	c7.9,1.3,19.4,2.3,33,0c20.2-3.5,34.5-12.5,42-18c9-3.3,18-6.7,27-10c9.9-2.6,24.4-5.4,42-5c18.9,0.4,32.1,4.3,46,8
	c17.9,4.7,43.4,10.7,76,16c15.8,3.7,35.9,6.7,59,6c51.8-1.6,91-20.6,112-33c10.9-4.2,27.2-8.9,47-9c26.3-0.2,35.8,8,82,25
	c7.5,2.8,63,22.9,123,32c7,1.1,12.4,1.7,19,2c33.3,1.4,60.2-8.2,77-16c-0.3,1-0.7,2-1,3c1,109.3,2,218.7,3,328L-1,767V454z"/>
</svg>
