<?xml version="1.0" encoding="utf-8"?>
<!-- Generator: Adobe Illustrator 21.1.0, SVG Export Plug-In . SVG Version: 6.00 Build 0)  -->
<svg version="1.1" id="Layer_1" xmlns="http://www.w3.org/2000/svg" xmlns:xlink="http://www.w3.org/1999/xlink" x="0px" y="0px"
	 viewBox="0 0 2000.2 2000.2" style="enable-background:new 0 0 2000.2 2000.2;" xml:space="preserve">
<style type="text/css">
	.st0{opacity:0.23;}
	.st1{fill:#FCEC76;}
</style>
<title>pale yellow sunburst</title>
<g class="st0">
	<title>Layer 1</title>
	<path id="path5029-4" class="st1" d="M2281.1,249.2L1015.8,979.7l1350.5-561.5C2341.5,359.8,2313,303.4,2281.1,249.2z"/>
	<path id="path5021-4" class="st1" d="M2431.1,603.7L1016.9,982.6l1452.6-193.2C2460.6,726.1,2447.7,664.1,2431.1,603.7z"/>
	<path id="path5009-6" class="st1" d="M993.8,987.2l-1448.3,192.6c7.9,63.3,19.8,125.4,35.4,186L993.8,987.2z"/>
	<path id="path5005-0" class="st1" d="M994.5,990.2l-1351.8,562c24,58.9,51.7,115.9,82.9,170.7L994.5,990.2L994.5,990.2z"/>
	<path id="path5094" class="st1" d="M2478.9,984.8h-1461l1450.3,189C2475.9,1110.7,2479.4,1047.6,2478.9,984.8z"/>
	<path id="path5096" class="st1" d="M2431.5,1366.7L1017.3,987.8l1354.6,559C2395.9,1487.5,2415.7,1427.4,2431.5,1366.7z"/>
	<path id="path5098" class="st1" d="M995,980.2L-355.5,422.9c-24.8,58.8-45.6,118.5-62.3,178.8L995,980.2z"/>
	<path id="path5100" class="st1" d="M994.1,983.2L-457.5,794c-8.6,63-13.1,126.2-13.6,189.2L994.1,983.2L994.1,983.2z"/>
	<path id="path5102" class="st1" d="M2280.6,1723.7L1015.4,993.2L2176.9,1882C2215,1831.3,2249.6,1778.4,2280.6,1723.7z"/>
	<path id="path5104" class="st1" d="M2048.6,2030.8L1013.4,995.5L1907,2156.9C1957.4,2117.6,2004.6,2075.4,2048.6,2030.8z"/>
	<path id="path5106" class="st1" d="M997.8,977.8L106.9-180.1C56-141.6,8.2-100.3-36.4-56.4L997.8,977.8z"/>
	<path id="path5108" class="st1" d="M995.6,980L-167,90.3c-39,50.2-74.5,102.7-106.4,157.1L995.6,980z"/>
	<path id="path5110" class="st1" d="M1742.5,2262.7L1012,997.5L1573.6,2348C1631.9,2323.2,1688.3,2294.6,1742.5,2262.7z"/>
	<path id="path5112" class="st1" d="M1388.1,2412.7L1009.1,998.5l193.2,1452.6C1265.6,2442.2,1327.6,2429.3,1388.1,2412.7z"/>
	<path id="path5114" class="st1" d="M1004.5,975.4L811.9-472.8c-63.3,7.9-125.4,19.8-186,35.4L1004.5,975.4z"/>
	<path id="path5116" class="st1" d="M1001.5,976.2l-562-1351.8c-58.9,24-115.9,51.7-170.7,82.9L1001.5,976.2L1001.5,976.2z"/>
	<path id="path5118" class="st1" d="M1006,2462.3v-1461L817,2451.7C880,2459.3,943.1,2462.8,1006,2462.3z"/>
	<path id="path5120" class="st1" d="M624,2415l378.9-1414.2L444,2355.3C503.2,2379.3,563.4,2399.1,624,2415z"/>
	<path id="path5122" class="st1" d="M1010.5,978.5l557.3-1350.5c-58.8-24.8-118.5-45.6-178.8-62.3L1010.5,978.5z"/>
	<path id="path5124" class="st1" d="M1007.5,977.6l189.2-1451.7c-63-8.7-126.2-13.1-189.2-13.6L1007.5,977.6L1007.5,977.6
		L1007.5,977.6z"/>
	<path id="path5126" class="st1" d="M270.1,2265.8l730.5-1265.3L111.8,2162.1C162.5,2200.3,215.4,2234.8,270.1,2265.8z"/>
	<path id="path5128" class="st1" d="M-37,2033.9L998.3,998.6l-1161.4,893.6C-123.8,1942.6-81.6,1989.8-37,2033.9L-37,2033.9
		L-37,2033.9z"/>
	<path id="path5130" class="st1" d="M1016,983L2173.9,92.1c-38.5-50.9-79.8-98.7-123.7-143.3L1016,983L1016,983z"/>
	<path id="path5132" class="st1" d="M1013.8,980.8l889.7-1162.6c-50.2-39-102.7-74.5-157.1-106.4L1013.8,980.8L1013.8,980.8z"/>
</g>
</svg>
