<?xml version="1.0" encoding="utf-8"?>
<!-- Generator: Adobe Illustrator 21.1.0, SVG Export Plug-In . SVG Version: 6.00 Build 0)  -->
<svg version="1.1" id="Layer_1" xmlns="http://www.w3.org/2000/svg" xmlns:xlink="http://www.w3.org/1999/xlink" x="0px" y="0px"
	 viewBox="0 0 1366 768" style="enable-background:new 0 0 1366 768;" xml:space="preserve">
<style type="text/css">
	.st0{fill:#95577d;stroke:#95577d;stroke-miterlimit:10;}
</style>
<path class="st0" d="M78.5,400.5l35,7l59-16l30-16l25,6l41,25l41,17c0,0,43-13,46-16s52-39,52-39l15-2l13,15l32,18l13-7
	c0,0,6-1,10,1s63,28,63,28l48-6l62-43h14l26,25l50,19l101-47l16-17l15,2l10,6l28,9l48,8l43,31h10.5h11.5l8-11l123-43l17,4l32,18
	l45-1l36-12l71-18l1,423l-1368-1L2,387l16.5-14.5l13,8l33,14l13,9L78.5,400.5z"/>
</svg>
