<?xml version="1.0" encoding="utf-8"?>
<!-- Generator: Adobe Illustrator 21.1.0, SVG Export Plug-In . SVG Version: 6.00 Build 0)  -->
<svg version="1.1" id="Layer_1" xmlns="http://www.w3.org/2000/svg" xmlns:xlink="http://www.w3.org/1999/xlink" x="0px" y="0px"
	 viewBox="0 0 1366 768" style="enable-background:new 0 0 1366 768;" xml:space="preserve">
<style type="text/css">
	.st0{fill:#56335f;stroke:#56335f;stroke-miterlimit:10;}
</style>
<path class="st0" d="M1,481.5c0.6,0.9,44.7,59.8,80,63c40.7,3.7,53.8-33.3,105-40c59.4-7.8,68.8,38.4,137,38
	c62.5-0.3,74-39.2,135-31c41.8,5.7,48.7,25.6,80,20c42.2-7.6,44.8-46.6,86-53c34.2-5.3,38.1,20.8,85,20c37.9-0.6,51.6-17.8,80-8
	c21.7,7.5,18.9,19.3,39,27c33.9,13,51-16.9,104-19c43-1.7,50.3,17.2,91,10c31.4-5.6,29.8-17.3,57-23c51.4-10.8,69,28.8,137,33
	c43.2,2.6,47.7-12.6,94-11c46.1,1.6,30.6-4.7,54.5,9l2,225l-1368,2L1,481.5z"/>
</svg>
