<?xml version="1.0" encoding="utf-8"?>
<!-- Generator: Adobe Illustrator 21.1.0, SVG Export Plug-In . SVG Version: 6.00 Build 0)  -->
<svg version="1.1" id="Layer_1" xmlns="http://www.w3.org/2000/svg" xmlns:xlink="http://www.w3.org/1999/xlink" x="0px" y="0px"
	 viewBox="0 0 1366 768" style="enable-background:new 0 0 1366 768;" xml:space="preserve">
<style type="text/css">
	.st0{fill:#874e7f;stroke:#874e7f;stroke-miterlimit:10;}
</style>
<path class="st0" d="M100,410"/>
<path class="st0" d="M-1,454c27.2-10.9,68.2-24.1,119-28c60.5-4.6,85.7,7.7,143,12c106.4,8,107.9-27.9,214-26
	c106.1,1.9,115.7,37.9,211,27c56.2-6.4,62.7-20.1,123-23c68.7-3.3,84.3,13.3,152,16c84,3.3,71.5-21.7,175-25
	c95.1-3,179.3,15.9,206,22c13.3,3,24.3,5.9,32,8c-1.3,111.3-2.7,222.7-4,334c-457-1-914-2-1371-3V454z"/>
</svg>
